HIERARCHY
ROOT Hips
{
	OFFSET	0.000000	0.000000	0.000000
	CHANNELS 6 Xposition Yposition Zposition Zrotation Xrotation Yrotation
	JOINT LeftHip
	{
		OFFSET	4.740440	-3.195970	-0.322709
		CHANNELS 3 Zrotation Xrotation Yrotation
		JOINT LeftKnee
		{
			OFFSET	-1.605680	-15.592300	1.005510
			CHANNELS 3 Zrotation Xrotation Yrotation
			JOINT LeftAnkle
			{
				OFFSET	-0.632401	-16.421000	-1.413730
				CHANNELS 3 Zrotation Xrotation Yrotation
				End Site
				{
					OFFSET	0.008423	-2.933000	-1.776750
				}
			}
		}
	}
	JOINT RightHip
	{
		OFFSET	-4.740440	-3.195970	-0.322709
		CHANNELS 3 Zrotation Xrotation Yrotation
		JOINT RightKnee
		{
			OFFSET	1.605680	-15.592300	1.005510
			CHANNELS 3 Zrotation Xrotation Yrotation
			JOINT RightAnkle
			{
				OFFSET	0.632401	-16.421000	-1.413730
				CHANNELS 3 Zrotation Xrotation Yrotation
				End Site
				{
					OFFSET	-0.008423	-2.933000	-1.776750
				}
			}
		}
	}
	JOINT Chest
	{
		OFFSET	0.000000	3.468200	0.078401
		CHANNELS 3 Zrotation Xrotation Yrotation
		JOINT LeftCollar
		{
			OFFSET	3.857650	15.070700	-0.011583
			CHANNELS 3 Zrotation Xrotation Yrotation
			JOINT LeftShoulder
			{
				OFFSET	3.979720	-1.940530	-0.165223
				CHANNELS 3 Zrotation Xrotation Yrotation
				JOINT LeftElbow
				{
					OFFSET	0.615844	-10.986600	-0.673886
					CHANNELS 3 Zrotation Xrotation Yrotation
					JOINT LeftWrist
					{
						OFFSET	0.826843	-10.854500	1.034220
						CHANNELS 3 Zrotation Xrotation Yrotation
						End Site
						{
							OFFSET	-1.679080	-8.456540	0.936217
						}
					}
				}
			}
		}
		JOINT RightCollar
		{
			OFFSET	-3.857650	15.070700	-0.011583
			CHANNELS 3 Zrotation Xrotation Yrotation
			JOINT RightShoulder
			{
				OFFSET	-3.979720	-1.940530	-0.165223
				CHANNELS 3 Zrotation Xrotation Yrotation
				JOINT RightElbow
				{
					OFFSET	-0.615845	-10.986600	-0.673886
					CHANNELS 3 Zrotation Xrotation Yrotation
					JOINT RightWrist
					{
						OFFSET	-0.826843	-10.854500	1.034220
						CHANNELS 3 Zrotation Xrotation Yrotation
						End Site
						{
							OFFSET	1.679080	-8.456540	0.936217
						}
					}
				}
			}
		}
		JOINT Neck
		{
			OFFSET	0.000000	15.101400	0.055730
			CHANNELS 3 Zrotation Xrotation Yrotation
			JOINT Head
			{
				OFFSET	0.000000	4.185120	1.488260
				CHANNELS 3 Zrotation Xrotation Yrotation
				End Site
				{
					OFFSET	0.000000	7.773420	-0.106016
				}
			}
		}
	}
}
MOTION
Frames:     6
Frame Time: 0.016667
-9.310822	35.079266	-3.131338	3.949841	-16.344706	-32.103569	14.862360	11.057464	16.528641	-15.165265	34.021591	19.604649	-15.240104	-18.965805	-2.201387	-19.690506	-20.380959	-6.489985	13.439483	49.728325	-4.165592	-2.965049	-14.318377	2.906297	1.886287	32.026638	-20.398304	18.402142	-16.001623	-17.009727	55.473873	-12.740252	15.682338	39.437531	-145.246140	23.788372	-10.297127	-6.961864	-10.408833	-2.429257	-7.382635	-5.785331	-6.397199	-15.286558	14.278003	78.236908	-53.017700	62.046547	4.830230	-15.236636	-19.730318	2.535679	-22.733910	-13.064734	1.176170	-9.410823	-10.919655	
-9.297674	35.074795	-3.195475	4.017691	-16.352512	-31.599094	15.019320	10.813833	16.469887	-15.330276	34.074631	19.272377	-14.926970	-18.931480	-2.206954	-19.832510	-20.321325	-6.486846	13.860154	49.631279	-4.757134	-2.987051	-14.303350	2.801291	1.831537	32.123383	-20.339855	18.386503	-16.002050	-17.044647	55.581993	-12.354255	15.892986	39.213688	-144.976868	23.397343	-10.285211	-6.415699	-10.478791	-2.582133	-7.378285	-5.522872	-6.327534	-15.070056	14.258599	78.290451	-53.380795	62.133659	4.696347	-15.269440	-19.778515	2.387065	-22.705507	-12.891740	1.276780	-9.571783	-11.427897	
-9.272282	35.087219	-3.234523	4.045166	-16.360168	-31.452202	15.166165	10.647372	16.762993	-15.284577	34.284706	18.841614	-14.817520	-18.920719	-2.213578	-19.876854	-20.305513	-6.471388	13.935962	49.491241	-4.854270	-2.976506	-14.184187	2.723995	1.763990	32.164654	-20.222841	18.321451	-15.875327	-16.808895	55.721424	-12.560657	15.874885	39.125481	-144.854431	23.265427	-10.214152	-6.026707	-10.402631	-2.593610	-7.395627	-5.501904	-6.297697	-15.006074	14.259449	78.263702	-53.401272	62.142120	4.662379	-15.325721	-19.789194	2.351002	-22.715405	-12.923362	1.292688	-9.701832	-11.308728	
-9.234409	35.073814	-3.309867	4.071192	-16.350294	-31.017891	15.376532	10.394749	16.795198	-15.436586	34.398296	18.520864	-14.531487	-18.882042	-2.264061	-20.001877	-20.322346	-6.504244	14.308810	49.432625	-5.387831	-2.972681	-14.121793	2.665874	1.640111	32.290325	-19.926664	18.393852	-15.912041	-16.944616	55.792065	-12.238138	16.084265	38.924240	-144.536453	22.997557	-10.412588	-6.365663	-10.303618	-2.582474	-7.428182	-5.465242	-6.216703	-14.900103	14.346572	78.164345	-53.486969	62.122272	4.596068	-15.439546	-19.816580	2.328490	-22.874159	-12.948785	1.257410	-9.736513	-11.620096	
-9.199215	35.078411	-3.351567	4.008621	-16.385328	-30.827198	15.580961	10.278741	16.956678	-15.379141	34.603249	18.134853	-14.445382	-18.873018	-2.268447	-20.011295	-20.222290	-6.560406	14.368065	49.311420	-5.451778	-2.963355	-14.011376	2.588369	1.689261	32.394772	-19.927544	18.329109	-15.795147	-16.695250	55.892662	-12.455999	16.060410	38.841152	-144.433044	22.917458	-10.373631	-5.994313	-10.279348	-2.575680	-7.429006	-5.442358	-6.183753	-14.915982	14.378883	78.145920	-53.500828	62.109684	4.570096	-15.448483	-19.827442	2.333037	-22.916042	-12.928013	1.227666	-9.839084	-11.519287	
-9.168039	35.070004	-3.420492	3.877610	-16.491209	-30.641710	15.759905	10.222161	17.006336	-15.495983	34.707794	17.922081	-14.235201	-18.853533	-2.286297	-19.935040	-20.103951	-6.372591	14.611559	49.202042	-5.843352	-2.992216	-13.931026	2.521521	1.591084	32.664085	-19.567530	18.341106	-15.820081	-16.752253	55.854149	-12.220501	16.256180	38.659054	-144.194626	22.642206	-10.558683	-6.329772	-10.349618	-2.600127	-7.430275	-5.316331	-6.075686	-14.965993	14.453949	78.164017	-53.548252	62.125011	4.599125	-15.401275	-19.839590	2.330733	-23.027590	-12.875374	1.168538	-9.822649	-11.877999	
